#!OML:ASF H:\Swim 2\Project 1\Capture day 1\Session 1\male.ASF
:FULLY-SPECIFIED
:DEGREES
1938
root 3.86853 15.2462 9.8477 93.0973 -34.8349 -0.450618
lowerback 13.2639 4.48709 3.74982
upperback -7.63006 6.47933 -3.73066
thorax -15.2083 2.38575 -8.02531
lowerneck -12.2382 -5.36689 -0.0419778
upperneck -13.8943 -6.95308 7.21527
head -2.12468 -3.7852 2.19975
rclavicle -3.33958e-014 2.78299e-014
rhumerus 50.8091 -16.4789 -34.5573
rradius 27.3602
rwrist -9.37995
rhand -20.307 0.498375
rfingers 7.12502
rthumb 6.04344 -29.3954
lclavicle -3.33958e-014 2.78299e-014
lhumerus 69.0369 -3.27292 21.9286
lradius 49.3409
lwrist 54.0476
lhand -35.5734 -18.843
lfingers 7.12502
lthumb -8.69814 10.9578
rfemur -107.301 -4.63518 31.4717
rtibia 115.31
rfoot 3.98342 4.13813
rtoes -3.0923
lfemur -105.144 15.234 -28.5009
ltibia 113.595
lfoot -10.1427 -8.91814
ltoes -17.2343
1939
root 3.81567 15.2813 9.88984 92.5144 -34.7661 -0.901571
lowerback 14.3873 4.46057 3.76189
upperback -7.42566 6.47001 -3.70242
thorax -15.6741 2.34167 -8.12462
lowerneck -12.3667 -5.31159 -0.211164
upperneck -14.2359 -6.83233 7.46622
head -2.20942 -3.7307 2.32295
rclavicle 9.54166e-015 1.23246e-014
rhumerus 49.0671 -15.449 -34.6488
rradius 28.7189
rwrist -10.6553
rhand -20.2865 0.434887
rfingers 7.12502
rthumb 6.06318 -29.4584
lclavicle 9.54166e-015 1.23246e-014
lhumerus 67.5789 -4.01736 22.1798
lradius 50.837
lwrist 54.0262
lhand -35.4829 -18.9745
lfingers 7.12502
lthumb -8.61085 10.8299
rfemur -106.897 -4.56828 31.3402
rtibia 116.031
rfoot 3.84981 4.23585
rtoes -3.17712
lfemur -104.679 16.2062 -28.4316
ltibia 114.258
lfoot -10.497 -9.25811
ltoes -16.9497
1940
root 3.76224 15.3173 9.93242 91.9423 -34.7083 -1.37954
lowerback 15.5133 4.45641 3.73179
upperback -7.22059 6.48213 -3.67081
thorax -16.1416 2.31104 -8.20225
lowerneck -12.48 -5.27337 -0.373232
upperneck -14.583 -6.73374 7.71939
head -2.29898 -3.68835 2.44693
rclavicle -7.95139e-015 8.74653e-015
rhumerus 47.2974 -14.3719 -34.7686
rradius 30.1519
rwrist -11.9254
rhand -20.3094 0.454675
rfingers 7.12502
rthumb 6.04111 -29.4392
lclavicle -7.95139e-015 8.74653e-015
lhumerus 66.1414 -4.78864 22.4634
lradius 52.3661
lwrist 54.0679
lhand -35.4248 -19.1208
lfingers 7.12502
lthumb -8.55476 10.6859
rfemur -106.475 -4.48512 31.1885
rtibia 116.746
rfoot 3.71744 4.32985
rtoes -3.2408
lfemur -104.198 17.2177 -28.3472
ltibia 114.921
lfoot -10.8897 -9.60261
ltoes -16.714
1941
root 3.70804 15.3544 9.97565 91.3828 -34.6596 -1.89802
lowerback 16.6475 4.48152 3.6591
upperback -7.01347 6.52398 -3.6326
thorax -16.6113 2.29784 -8.25775
lowerneck -12.5829 -5.24696 -0.515275
upperneck -14.9272 -6.65488 7.94068
head -2.39126 -3.65658 2.5576
rclavicle -1.22451e-013 7.196e-014
rhumerus 45.5123 -13.2596 -34.9212
rradius 31.6407
rwrist -13.2183
rhand -20.3425 0.645715
rfingers 7.12502
rthumb 6.00911 -29.2491
lclavicle -1.22451e-013 7.196e-014
lhumerus 64.7223 -5.58664 22.7955
lradius 53.9253
lwrist 54.141
lhand -35.3972 -19.2682
lfingers 7.12502
lthumb -8.52811 10.5396
rfemur -106.021 -4.3712 31.0167
rtibia 117.451
rfoot 3.5824 4.4117
rtoes -3.26229
lfemur -103.69 18.2819 -28.2419
ltibia 115.586
lfoot -11.3118 -9.96377
ltoes -16.589
1942
root 3.65334 15.3927 10.0194 90.8297 -34.6153 -2.45604
lowerback 17.7959 4.53484 3.5567
upperback -6.80283 6.59609 -3.58529
thorax -17.0838 2.30084 -8.29718
lowerneck -12.6819 -5.23673 -0.64604
upperneck -15.2588 -6.60142 8.13355
head -2.48102 -3.63749 2.65661
rclavicle 7.31528e-014 -4.69132e-014
rhumerus 43.7146 -12.1094 -35.1054
rradius 33.1794
rwrist -14.5328
rhand -20.3757 1.06785
rfingers 7.12502
rthumb 5.97709 -28.8278
lclavicle 7.31528e-014 -4.69132e-014
lhumerus 63.3116 -6.40963 23.1736
lradius 55.5222
lwrist 54.2313
lhand -35.3975 -19.4075
lfingers 7.12502
lthumb -8.52837 10.4002
rfemur -105.531 -4.22411 30.8321
rtibia 118.142
rfoot 3.44358 4.47158
rtoes -3.24655
lfemur -103.149 19.4009 -28.1093
ltibia 116.256
lfoot -11.7686 -10.3344
ltoes -16.6253
1943
root 3.59825 15.4321 10.0638 90.2749 -34.5727 -3.05763
lowerback 18.9721 4.61609 3.43736
upperback -6.58759 6.70017 -3.53038
thorax -17.5644 2.31843 -8.33283
lowerneck -12.7855 -5.24252 -0.763414
upperneck -15.5695 -6.5744 8.29552
head -2.56379 -3.63122 2.74182
rclavicle 9.54166e-015 -3.45885e-014
rhumerus 41.9088 -10.9267 -35.3315
rradius 34.7674
rwrist -15.8911
rhand -20.3812 1.7412
rfingers 7.12502
rthumb 5.97178 -28.1546
lclavicle 9.54166e-015 -3.45885e-014
lhumerus 61.9025 -7.25849 23.5944
lradius 57.1666
lwrist 54.3283
lhand -35.4064 -19.5284
lfingers 7.12502
lthumb -8.53696 10.279
rfemur -104.991 -4.04001 30.6378
rtibia 118.818
rfoot 3.29775 4.50161
rtoes -3.17235
lfemur -102.562 20.5892 -27.9467
ltibia 116.932
lfoot -12.2582 -10.7198
ltoes -16.797
1944
root 3.54325 15.4721 10.108 89.7259 -34.5287 -3.70269
lowerback 20.1648 4.72752 3.30546
upperback -6.37059 6.83953 -3.46757
thorax -18.048 2.35169 -8.36778
lowerneck -12.8876 -5.25765 -0.870962
upperneck -15.8605 -6.56452 8.42295
head -2.64118 -3.63273 2.81292
rclavicle -3.18055e-014 8.74653e-015
rhumerus 40.0885 -9.70407 -35.5925
rradius 36.433
rwrist -17.3071
rhand -20.3605 2.50386
rfingers 7.12502
rthumb 5.99179 -27.3914
lclavicle -3.18055e-014 8.74653e-015
lhumerus 60.497 -8.1355 24.0557
lradius 58.8636
lwrist 54.4262
lhand -35.4138 -19.6264
lfingers 7.12502
lthumb -8.54416 10.1807
rfemur -104.416 -3.81274 30.439
rtibia 119.483
rfoot 3.15164 4.49747
rtoes -3.02937
lfemur -101.941 21.8535 -27.7567
ltibia 117.616
lfoot -12.7716 -11.1309
ltoes -17.0566
1945
root 3.48858 15.513 10.1523 89.1832 -34.4854 -4.36931
lowerback 21.2397 4.8669 3.16993
upperback -6.4064 6.98803 -3.53373
thorax -18.1819 2.44958 -8.24592
lowerneck -12.9784 -5.27491 -0.965038
upperneck -16.1407 -6.56178 8.51682
head -2.71833 -3.63751 2.87041
rclavicle 4.29375e-014 -1.20265e-013
rhumerus 38.2546 -8.43141 -35.8867
rradius 38.1845
rwrist -18.7785
rhand -20.3526 3.2895
rfingers 7.12502
rthumb 5.99944 -26.6056
lclavicle 4.29375e-014 -1.20265e-013
lhumerus 59.0966 -9.04694 24.5409
lradius 60.6195
lwrist 54.528
lhand -35.4304 -19.7194
lfingers 7.12502
lthumb -8.56015 10.0871
rfemur -103.825 -3.56223 30.2372
rtibia 120.137
rfoot 3.0106 4.46706
rtoes -2.84079
lfemur -101.289 23.1548 -27.529
ltibia 118.304
lfoot -13.2949 -11.5604
ltoes -17.3155
1946
root 3.43427 15.5543 10.1962 88.6524 -34.4491 -5.05163
lowerback 22.4132 5.02583 3.0214
upperback -6.2227 7.17674 -3.47833
thorax -18.6245 2.50967 -8.27817
lowerneck -13.0533 -5.29746 -1.04414
upperneck -16.4186 -6.56904 8.59244
head -2.79836 -3.64783 2.91958
rclavicle 6.83819e-014 9.93923e-015
rhumerus 36.4019 -7.10262 -36.213
rradius 40.0239
rwrist -20.3434
rhand -20.4681 4.17248
rfingers 7.12502
rthumb 5.88787 -25.7257
lclavicle 6.83819e-014 9.93923e-015
lhumerus 57.7125 -9.99675 25.0301
lradius 62.4346
lwrist 54.6356
lhand -35.4559 -19.8134
lfingers 7.12502
lthumb -8.58479 9.99203
rfemur -103.234 -3.2912 30.0278
rtibia 120.783
rfoot 2.88253 4.41943
rtoes -2.62458
lfemur -100.613 24.4877 -27.2709
ltibia 118.995
lfoot -13.832 -12.0148
ltoes -17.4966
1947
root 3.38023 15.5961 10.2398 88.131 -34.4328 -5.7364
lowerback 23.5703 5.20906 2.84477
upperback -6.0462 7.3838 -3.42577
thorax -19.0596 2.57932 -8.30707
lowerneck -13.0996 -5.30516 -1.08532
upperneck -16.7048 -6.56449 8.60762
head -2.89037 -3.65329 2.94352
rclavicle -6.36111e-014 6.99722e-014
rhumerus 34.532 -5.70438 -36.5594
rradius 41.9587
rwrist -21.9793
rhand -20.715 5.14745
rfingers 7.12502
rthumb 5.64956 -24.7572
lclavicle -6.36111e-014 6.99722e-014
lhumerus 56.3546 -10.9895 25.5279
lradius 64.2986
lwrist 54.737
lhand -35.4952 -19.9331
lfingers 7.12502
lthumb -8.62266 9.87078
rfemur -102.648 -3.01546 29.7973
rtibia 121.422
rfoot 2.76135 4.36972
rtoes -2.404
lfemur -99.9062 25.8341 -26.9945
ltibia 119.685
lfoot -14.3904 -12.4865
ltoes -17.6034
1948
root 3.32642 15.638 10.2828 87.6315 -34.443 -6.42615
lowerback 24.6955 5.42101 2.62739
upperback -5.87788 7.60965 -3.37657
thorax -19.4816 2.66066 -8.32544
lowerneck -13.1136 -5.31904 -1.11478
upperneck -17.0067 -6.56935 8.6149
head -2.994 -3.6649 2.96456
rclavicle 7.31528e-014 -8.94531e-015
rhumerus 32.6527 -4.22197 -36.9142
rradius 44.0017
rwrist -23.6425
rhand -21.1793 6.09656
rfingers 7.12502
rthumb 5.20127 -23.8196
lclavicle 7.31528e-014 -8.94531e-015
lhumerus 55.0282 -12.0235 26.0295
lradius 66.2059
lwrist 54.8153
lhand -35.5371 -20.0611
lfingers 7.12502
lthumb -8.66315 9.74117
rfemur -102.083 -2.72919 29.537
rtibia 122.056
rfoot 2.65419 4.33299
rtoes -2.19626
lfemur -99.1821 27.2008 -26.7127
ltibia 120.374
lfoot -14.9721 -12.9752
ltoes -17.6086
1949
root 3.27258 15.6798 10.3252 87.1601 -34.4816 -7.12754
lowerback 25.7832 5.66937 2.36176
upperback -5.71752 7.86105 -3.32839
thorax -19.8885 2.75781 -8.32922
lowerneck -13.0923 -5.34291 -1.13891
upperneck -17.3288 -6.5882 8.6134
head -3.11104 -3.68477 2.98378
rclavicle -1.74931e-014 4.94974e-014
rhumerus 30.7736 -2.66424 -37.2673
rradius 46.1422
rwrist -25.3427
rhand -21.8305 7.06698
rfingers 7.12502
rthumb 4.57245 -22.8637
lclavicle -1.74931e-014 4.94974e-014
lhumerus 53.7424 -13.0985 26.5419
lradius 68.153
lwrist 54.8519
lhand -35.5758 -20.1878
lfingers 7.12502
lthumb -8.70042 9.61293
rfemur -101.535 -2.42378 29.2401
rtibia 122.685
rfoot 2.55428 4.31976
rtoes -2.00005
lfemur -98.4425 28.6061 -26.4318
ltibia 121.065
lfoot -15.5636 -13.4939
ltoes -17.5568
1950
root 3.21915 15.7211 10.3668 86.7176 -34.551 -7.83227
lowerback 26.8295 5.9519 2.05236
upperback -5.56489 8.13587 -3.2766
thorax -20.2793 2.86975 -8.31522
lowerneck -13.026 -5.38007 -1.18248
upperneck -17.677 -6.62262 8.60674
head -3.24439 -3.71248 3.00748
rclavicle 4.6118e-014 4.65156e-014
rhumerus 28.9194 -1.03349 -37.6066
rradius 48.3611
rwrist -27.0907
rhand -22.6326 8.12794
rfingers 7.12502
rthumb 3.79793 -21.818
lclavicle 4.6118e-014 4.65156e-014
lhumerus 52.4928 -14.2115 27.052
lradius 70.1502
lwrist 54.858
lhand -35.631 -20.2921
lfingers 7.12502
lthumb -8.75369 9.50635
rfemur -101.013 -2.10723 28.9014
rtibia 123.314
rfoot 2.46226 4.33848
rtoes -1.84935
lfemur -97.693 30.0522 -26.1647
ltibia 121.759
lfoot -16.1785 -14.0158
ltoes -17.5141
1951
root 3.16616 15.7619 10.4077 86.3099 -34.6491 -8.54784
lowerback 27.8315 6.27226 1.69987
upperback -5.42108 8.439 -3.21733
thorax -20.6553 2.99857 -8.28211
lowerneck -12.9217 -5.43074 -1.24171
upperneck -18.0465 -6.67526 8.5835
head -3.39186 -3.74891 3.03068
rclavicle -9.06458e-014 -5.64548e-014
rhumerus 27.1025 0.665403 -37.9212
rradius 50.6558
rwrist -28.922
rhand -23.5186 9.27626
rfingers 7.12502
rthumb 2.94226 -20.6832
lclavicle -9.06458e-014 -5.64548e-014
lhumerus 51.2783 -15.3683 27.5679
lradius 72.194
lwrist 54.8306
lhand -35.695 -20.3704
lfingers 7.12502
lthumb -8.81553 9.42543
rfemur -100.513 -1.77238 28.5176
rtibia 123.939
rfoot 2.37981 4.39075
rtoes -1.72067
lfemur -96.9321 31.5532 -25.9048
ltibia 122.457
lfoot -16.8077 -14.5552
ltoes -17.475
